<svg xmlns="http://www.w3.org/2000/svg" viewBox="0 0 180 180" width="180" height="180">
  <rect x="0" y="0" width="180" height="180" rx="40" fill="#2e1065"/>

  <!-- Scaled version of the mark (64x64 -> centered in 180x180 at ~2.6x) -->
  <g transform="translate(8 8) scale(2.5625)">
    <path d="M10 26 C 10 20, 15 11, 20 9 L 27 16 L 32 5 L 37 16 L 44 9 C 49 11, 54 20, 54 26 Z"
          fill="#ffffff"/>
    <rect x="4" y="26" width="56" height="5" rx="2.5" fill="#ffffff"/>
    <circle cx="22" cy="42" r="6.5" stroke="#ffffff" stroke-width="3" fill="none"/>
    <circle cx="42" cy="42" r="6.5" stroke="#ffffff" stroke-width="3" fill="none"/>
    <path d="M28.5 41.5 Q32 39 35.5 41.5" stroke="#ffffff" stroke-width="3" stroke-linecap="round" fill="none"/>
    <path d="M18 54 C 21 58, 27 59, 32 55 C 37 59, 43 58, 46 54 C 44.5 51.5, 41.5 50, 39 51.5 C 36 53, 34 53, 32 51.5 C 30 53, 28 53, 25 51.5 C 22.5 50, 19.5 51.5, 18 54 Z"
          fill="#ffffff"/>
  </g>
</svg>
